<svg width="371" height="431" viewBox="0 0 371 431" fill="none" xmlns="http://www.w3.org/2000/svg">
<path d="M354.284 430.967H259.302C250.309 430.967 242.92 423.827 242.586 414.852C240.547 355.163 229.213 331.007 220.119 321.231C211.795 312.323 202.4 311.723 187.957 311.756H185.517H183.645C174.016 311.689 164.956 311.656 156.364 321.065C147.069 331.207 135.335 355.764 132.159 415.152C131.69 423.994 124.369 430.933 115.476 430.933H16.7162C7.48887 430.933 0 423.46 0 414.251C0 336.346 21.8314 233.684 83.3806 200.72C110.728 186.039 128.916 183.437 151.951 180.1C161.713 178.699 172.779 177.064 186.353 174.295C279.094 155.311 331.65 126.484 337.099 33.3643H34.0342C38.0796 86.1133 61.8835 121.646 106.549 141.665C114.974 145.435 118.719 155.311 114.941 163.719C111.163 172.126 101.267 175.897 92.8419 172.093C31.2594 144.467 0 92.1856 0 16.6822C0 7.4736 7.48887 0 16.7162 0H354.284C363.511 0 371 7.4736 371 16.6822C371 158.647 279.161 189.342 193.106 206.992C178.563 209.962 166.995 211.663 156.765 213.131C134.699 216.334 121.393 218.269 99.2275 230.147C57.4704 252.534 36.7423 329.472 33.8002 397.602H99.8293C108.756 293.339 146.601 278.425 183.11 278.425C183.344 278.425 183.544 278.425 183.778 278.425H185.483H187.79C188.091 278.425 188.358 278.425 188.659 278.425C227.006 278.425 267.861 288.501 275.183 397.602H337.467C336.364 303.448 324.763 251.634 273.712 233.016C265.053 229.847 260.573 220.271 263.749 211.63C266.925 202.988 276.52 198.518 285.179 201.687C364.414 230.581 370.967 318.763 370.967 414.318C370.967 423.526 363.478 431 354.25 431L354.284 430.967Z" fill="#FF570C"/>
</svg>
